<svg xmlns="http://www.w3.org/2000/svg" width="57.926" height="39.101" viewBox="0 0 57.926 39.101">
  <path id="Icon_zocial-email" data-name="Icon zocial-email" d="M.072,39.706V7.531q0-.056.168-1.061l18.936,16.2L.3,40.823a4.734,4.734,0,0,1-.223-1.117ZM2.586,4.236a2.407,2.407,0,0,1,.95-.168h51a3.163,3.163,0,0,1,1.005.168L36.548,20.491,34.034,22.5l-4.971,4.078L24.091,22.5l-2.514-2.011ZM2.642,43,21.69,24.736l7.373,5.977,7.373-5.977L55.484,43a2.682,2.682,0,0,1-.95.168h-51A2.53,2.53,0,0,1,2.642,43ZM38.95,22.669,57.83,6.47A3.334,3.334,0,0,1,58,7.531V39.706a4.281,4.281,0,0,1-.168,1.117Z" transform="translate(-0.072 -4.068)" fill="#fff"/>
</svg>
