<svg xmlns="http://www.w3.org/2000/svg" width="51" height="51" viewBox="0 0 51 51">
  <g id="Icon_feather-instagram" data-name="Icon feather-instagram" transform="translate(-1.5 -1.5)">
    <path id="Pfad_1" data-name="Pfad 1" d="M15,3H39A12,12,0,0,1,51,15V39A12,12,0,0,1,39,51H15A12,12,0,0,1,3,39V15A12,12,0,0,1,15,3Z" transform="translate(0 0)" fill="none" stroke="#fff" stroke-linecap="round" stroke-linejoin="round" stroke-width="3"/>
    <path id="Pfad_2" data-name="Pfad 2" d="M31.161,20.127a9.6,9.6,0,1,1-8.088-8.088,9.6,9.6,0,0,1,8.088,8.088Z" transform="translate(5.439 5.361)" fill="none" stroke="#fff" stroke-linecap="round" stroke-linejoin="round" stroke-width="3"/>
    <path id="Pfad_3" data-name="Pfad 3" d="M26.25,9.75h0" transform="translate(13.95 4.05)" fill="none" stroke="#fff" stroke-linecap="round" stroke-linejoin="round" stroke-width="3"/>
  </g>
</svg>
