<svg xmlns="http://www.w3.org/2000/svg" width="55.966" height="61.254" viewBox="0 0 55.966 61.254">
  <path id="Icon_feather-phone" data-name="Icon feather-phone" d="M56.129,46.61v8.769A6.122,6.122,0,0,1,54.4,59.71a5.039,5.039,0,0,1-4.08,1.514,49.779,49.779,0,0,1-22.981-8.973A54.747,54.747,0,0,1,11.365,34.714,61.578,61.578,0,0,1,3.189,9.372,6.213,6.213,0,0,1,4.56,4.9,5.124,5.124,0,0,1,8.489,3h7.989A5.508,5.508,0,0,1,21.8,8.028a40.562,40.562,0,0,0,1.864,8.213,6.266,6.266,0,0,1-1.2,6.167L19.087,26.12A44.916,44.916,0,0,0,35.065,43.658l3.382-3.712a4.988,4.988,0,0,1,5.619-1.315,31.73,31.73,0,0,0,7.483,2.046,5.713,5.713,0,0,1,4.58,5.934Z" transform="translate(-1.665 -1.5)" fill="none" stroke="#fff" stroke-linecap="round" stroke-linejoin="round" stroke-width="3"/>
</svg>
